<svg width="64" height="64" viewBox="0 0 64 64" fill="none" xmlns="http://www.w3.org/2000/svg" role="img" aria-labelledby="title desc">
  <title id="title">HerdSignal mark</title>
  <desc id="desc">A particle H mark with dispersed left dots and clustered right dots.</desc>
  <rect width="64" height="64" rx="16" fill="#111827"/>
  <rect x="0.5" y="0.5" width="63" height="63" rx="15.5" stroke="#334155"/>
  <g fill="#E5EDF8">
    <circle cx="18" cy="17" r="2.7"/>
    <circle cx="16" cy="27" r="2.4"/>
    <circle cx="19" cy="38" r="2.6"/>
    <circle cx="17" cy="49" r="2.3"/>
    <circle cx="27" cy="31" r="2.5"/>
    <circle cx="36" cy="31" r="2.5"/>
    <circle cx="47" cy="17" r="3.2"/>
    <circle cx="47" cy="27" r="3.2"/>
    <circle cx="47" cy="37" r="3.2"/>
    <circle cx="47" cy="47" r="3.2"/>
  </g>
  <g fill="#3B82F6">
    <circle cx="11" cy="21" r="1.7"/>
    <circle cx="10" cy="43" r="1.5"/>
    <circle cx="22" cy="11" r="1.3"/>
  </g>
  <g fill="#FB923C">
    <circle cx="53" cy="23" r="1.5"/>
    <circle cx="54" cy="35" r="1.4"/>
    <circle cx="53" cy="45" r="1.6"/>
  </g>
  <path d="M25 31C28.5 27.5 32.5 34.5 36 31" stroke="#60A5FA" stroke-width="2" stroke-linecap="round"/>
</svg>
