<svg width="190" height="44" viewBox="0 0 190 44" fill="none" xmlns="http://www.w3.org/2000/svg" role="img" aria-labelledby="title desc">
  <title id="title">HerdSignal logo</title>
  <desc id="desc">HerdSignal wordmark with a particle H symbol.</desc>
  <defs>
    <linearGradient id="signalGradient" x1="105" y1="0" x2="168" y2="0" gradientUnits="userSpaceOnUse">
      <stop offset="0" stop-color="#3B82F6"/>
      <stop offset="0.62" stop-color="#FB923C"/>
      <stop offset="1" stop-color="#EF4444"/>
    </linearGradient>
  </defs>
  <g>
    <rect width="44" height="44" rx="12" fill="#111827"/>
    <rect x="0.5" y="0.5" width="43" height="43" rx="11.5" stroke="#334155"/>
    <g fill="#E5EDF8">
      <circle cx="13" cy="11.5" r="2"/>
      <circle cx="11.8" cy="19" r="1.8"/>
      <circle cx="13.2" cy="26.5" r="1.9"/>
      <circle cx="12" cy="34.5" r="1.7"/>
      <circle cx="19" cy="22" r="1.8"/>
      <circle cx="25" cy="22" r="1.8"/>
      <circle cx="32" cy="12" r="2.3"/>
      <circle cx="32" cy="19" r="2.3"/>
      <circle cx="32" cy="26" r="2.3"/>
      <circle cx="32" cy="33" r="2.3"/>
    </g>
    <g fill="#3B82F6">
      <circle cx="7.5" cy="15" r="1.2"/>
      <circle cx="7" cy="30" r="1.1"/>
      <circle cx="16.5" cy="7.5" r="1"/>
    </g>
    <g fill="#FB923C">
      <circle cx="36.5" cy="17" r="1.1"/>
      <circle cx="37" cy="25" r="1"/>
      <circle cx="36.5" cy="32" r="1.2"/>
    </g>
    <path d="M18 22C20.5 19.5 23.5 24.5 26 22" stroke="#60A5FA" stroke-width="1.6" stroke-linecap="round"/>
  </g>
  <text x="56" y="27.8" fill="#E5EDF8" font-family="Space Grotesk, Inter, Arial, sans-serif" font-size="20" font-weight="750" letter-spacing="-0.2">Herd</text>
  <text x="105" y="27.8" fill="url(#signalGradient)" font-family="Space Grotesk, Inter, Arial, sans-serif" font-size="20" font-weight="750" letter-spacing="-0.2">Signal</text>
</svg>
