<svg width="1280" height="640" viewBox="0 0 1280 640" fill="none" xmlns="http://www.w3.org/2000/svg">
  <defs>
    <linearGradient id="background" x1="120" y1="40" x2="1160" y2="600" gradientUnits="userSpaceOnUse">
      <stop stop-color="#111827"/>
      <stop offset="1" stop-color="#070B13"/>
    </linearGradient>
    <linearGradient id="signal" x1="665" y1="0" x2="1030" y2="0" gradientUnits="userSpaceOnUse">
      <stop stop-color="#3B82F6"/>
      <stop offset="0.62" stop-color="#FB923C"/>
      <stop offset="1" stop-color="#EF4444"/>
    </linearGradient>
    <filter id="glow" x="-50%" y="-50%" width="200%" height="200%">
      <feGaussianBlur stdDeviation="18"/>
    </filter>
  </defs>

  <rect width="1280" height="640" rx="32" fill="url(#background)"/>
  <circle cx="1100" cy="80" r="230" fill="#2563EB" fill-opacity="0.08" filter="url(#glow)"/>
  <circle cx="190" cy="610" r="260" fill="#F97316" fill-opacity="0.06" filter="url(#glow)"/>

  <g transform="translate(110 220) scale(4.55)">
    <rect width="44" height="44" rx="12" fill="#111827"/>
    <rect x="0.5" y="0.5" width="43" height="43" rx="11.5" stroke="#475569"/>
    <g fill="#E5EDF8">
      <circle cx="13" cy="11.5" r="2"/><circle cx="11.8" cy="19" r="1.8"/>
      <circle cx="13.2" cy="26.5" r="1.9"/><circle cx="12" cy="34.5" r="1.7"/>
      <circle cx="19" cy="22" r="1.8"/><circle cx="25" cy="22" r="1.8"/>
      <circle cx="32" cy="12" r="2.3"/><circle cx="32" cy="19" r="2.3"/>
      <circle cx="32" cy="26" r="2.3"/><circle cx="32" cy="33" r="2.3"/>
    </g>
    <g fill="#3B82F6">
      <circle cx="7.5" cy="15" r="1.2"/><circle cx="7" cy="30" r="1.1"/><circle cx="16.5" cy="7.5" r="1"/>
    </g>
    <g fill="#FB923C">
      <circle cx="36.5" cy="17" r="1.1"/><circle cx="37" cy="25" r="1"/><circle cx="36.5" cy="32" r="1.2"/>
    </g>
    <path d="M18 22C20.5 19.5 23.5 24.5 26 22" stroke="#60A5FA" stroke-width="1.6" stroke-linecap="round"/>
  </g>

  <text x="375" y="300" fill="#E5EDF8" font-family="Arial, sans-serif" font-size="92" font-weight="700" letter-spacing="-3">Herd</text>
  <text x="585" y="300" fill="url(#signal)" font-family="Arial, sans-serif" font-size="92" font-weight="700" letter-spacing="-3">Signal</text>
  <text x="380" y="372" fill="#94A3B8" font-family="Arial, sans-serif" font-size="32" font-weight="400">Data-driven timing for long-term investors</text>

  <g fill="#334155">
    <circle cx="1040" cy="480" r="8"/><circle cx="1080" cy="480" r="10"/>
    <circle cx="1125" cy="480" r="12"/><circle cx="1175" cy="480" r="15"/>
  </g>
  <path d="M1020 520H1195" stroke="#1E293B" stroke-width="2" stroke-linecap="round"/>
</svg>
